<?xml version="1.0" encoding="utf-8"?>
<!-- Generator: Adobe Illustrator 24.0.0, SVG Export Plug-In . SVG Version: 6.00 Build 0)  -->
<svg version="1.1" id="Camada_1" xmlns="http://www.w3.org/2000/svg" xmlns:xlink="http://www.w3.org/1999/xlink" x="0px" y="0px"
	 viewBox="0 0 1300 1300" style="enable-background:new 0 0 1300 1300;" xml:space="preserve">
<style type="text/css">
	.st0{fill:url(#SVGID_1_);}
	.st1{fill:#010101;}
	.st2{fill:url(#SVGID_2_);}
	.st3{fill:url(#SVGID_3_);}
	.st4{fill:url(#SVGID_4_);}
	.st5{fill:#9CCB3D;}
	.st6{fill:url(#SVGID_5_);}
	.st7{fill:url(#SVGID_6_);}
	.st8{fill:url(#SVGID_7_);}
	.st9{fill:url(#SVGID_8_);}
	.st10{fill:#0E92CC;}
	.st11{fill:url(#SVGID_9_);}
	.st12{fill:url(#SVGID_10_);}
	.st13{fill:url(#SVGID_11_);}
	.st14{fill:url(#SVGID_12_);}
	.st15{fill:url(#SVGID_13_);}
	.st16{fill:#64C0EC;}
	.st17{font-family:'Heavitas';}
	.st18{font-size:90.0842px;}
	.st19{fill:#BFDB85;}
</style>
<linearGradient id="SVGID_1_" gradientUnits="userSpaceOnUse" x1="490.7403" y1="581.8729" x2="577.4042" y2="581.8729">
	<stop  offset="0" style="stop-color:#CBDF84"/>
	<stop  offset="1" style="stop-color:#AAD037"/>
</linearGradient>
<path class="st0" d="M577.4,621.01c-4.9,1.99-10.31,3.09-16.8,3.09c-23.03,0-38.96-19.19-38.96-42.23v-0.38
	c0-23.03,16.32-41.84,38.96-41.84c6.11,0,11.62,1.2,16.8,3.39V513.8c-5.02-0.91-10.51-1.41-16.6-1.41
	c-41.27,0-70.06,31.29-70.06,69.48v0.38c0,38.58,29.37,69.1,68.91,69.1c6.54,0,12.41-0.59,17.76-1.71V621.01z"/>
<path class="st1" d="M624.05,571.04"/>
<linearGradient id="SVGID_2_" gradientUnits="userSpaceOnUse" x1="612.6158" y1="633.8301" x2="612.6158" y2="529.9158">
	<stop  offset="0" style="stop-color:#AAD037"/>
	<stop  offset="1" style="stop-color:#9CCB3D"/>
</linearGradient>
<polygon class="st2" points="624.05,592.12 624.05,633.83 601.19,633.83 601.19,529.92 624.05,529.92 624.05,571.04 "/>
<linearGradient id="SVGID_3_" gradientUnits="userSpaceOnUse" x1="677.6364" y1="633.8301" x2="677.6364" y2="529.9158">
	<stop  offset="0" style="stop-color:#AAD037"/>
	<stop  offset="1" style="stop-color:#9CCB3D"/>
</linearGradient>
<polygon class="st3" points="666.21,571.04 666.21,529.92 689.07,529.92 689.07,633.83 666.21,633.83 666.21,592.12 "/>
<linearGradient id="SVGID_4_" gradientUnits="userSpaceOnUse" x1="511.2265" y1="615.6478" x2="511.2265" y2="550.6887">
	<stop  offset="0" style="stop-color:#CBDF84;stop-opacity:0"/>
	<stop  offset="1" style="stop-color:#84AB3F"/>
</linearGradient>
<path class="st4" d="M523.26,594.3c-1.06-3.94-1.62-8.12-1.62-12.43v-0.38c0-10.99,3.72-21.02,10.07-28.5
	c-0.51-1.43-0.91-2.22-0.91-2.22c-14.79-3.01-27.62,2.6-37.46,11.73c-1.69,6.16-2.6,12.65-2.6,19.37v0.38
	c0,11.87,2.79,22.97,7.79,32.66C509.99,608.15,517.89,601.12,523.26,594.3z"/>
<path class="st5" d="M490.74,581.87v0.38c0,11.87,2.79,22.97,7.79,32.66c12-33.9,24.07-51.97,32.8-61.48
	c2.48-3.02,5.38-5.63,8.64-7.75c2.76-1.92,4.36-2.43,4.36-2.43l0,0c4.88-2.31,10.36-3.61,16.29-3.61c6.11,0,11.62,1.2,16.8,3.39
	V513.8c-5.02-0.91-10.51-1.41-16.6-1.41C519.53,512.39,490.74,543.68,490.74,581.87z"/>
<g>
	
		<linearGradient id="SVGID_5_" gradientUnits="userSpaceOnUse" x1="72.0331" y1="146.968" x2="158.6971" y2="146.968" gradientTransform="matrix(-1 0 0 -1 871.545 728.8409)">
		<stop  offset="0" style="stop-color:#CBDF84"/>
		<stop  offset="1" style="stop-color:#AAD037"/>
	</linearGradient>
	<path class="st6" d="M712.85,542.74c4.9-1.99,10.31-3.09,16.8-3.09c23.03,0,38.96,19.19,38.96,42.23v0.38
		c0,23.03-16.32,41.84-38.96,41.84c-6.11,0-11.62-1.2-16.8-3.39v29.23c5.02,0.91,10.51,1.41,16.6,1.41
		c41.27,0,70.06-31.29,70.06-69.48v-0.38c0-38.58-29.37-69.1-68.91-69.1c-6.54,0-12.41,0.59-17.76,1.71V542.74z"/>
	
		<linearGradient id="SVGID_6_" gradientUnits="userSpaceOnUse" x1="92.5194" y1="186.6262" x2="92.5194" y2="121.6671" gradientTransform="matrix(-1 0 0 -1 871.545 728.8409)">
		<stop  offset="0" style="stop-color:#CBDF84;stop-opacity:0"/>
		<stop  offset="1" style="stop-color:#84AB3F"/>
	</linearGradient>
	<path class="st7" d="M766.99,569.45c1.06,3.94,1.62,8.12,1.62,12.43v0.38c0,10.99-3.72,21.02-10.07,28.5
		c0.51,1.43,0.91,2.22,0.91,2.22c14.79,3.01,27.62-2.6,37.46-11.73c1.69-6.16,2.6-12.65,2.6-19.37v-0.38
		c0-11.87-2.79-22.97-7.79-32.66C780.26,555.59,772.37,562.62,766.99,569.45z"/>
	<path class="st5" d="M799.51,581.87v-0.38c0-11.87-2.79-22.97-7.79-32.66c-12,33.9-24.07,51.97-32.8,61.48
		c-2.48,3.02-5.38,5.63-8.64,7.75c-2.76,1.92-4.36,2.43-4.36,2.43l0,0c-4.88,2.31-10.36,3.61-16.28,3.61
		c-6.11,0-11.62-1.2-16.8-3.39v29.23c5.02,0.91,10.51,1.41,16.6,1.41C770.72,651.36,799.51,620.07,799.51,581.87z"/>
</g>
<g>
	<linearGradient id="SVGID_7_" gradientUnits="userSpaceOnUse" x1="575.6291" y1="470.8057" x2="714.5961" y2="470.8057">
		<stop  offset="0" style="stop-color:#8CCCE6"/>
		<stop  offset="1" style="stop-color:#36A6D6"/>
	</linearGradient>
	<path class="st8" d="M605.98,514.14c-1.99-4.9-3.09-10.31-3.09-16.8c0-23.03,19.19-38.96,42.23-38.96h0.38
		c23.03,0,41.84,16.32,41.84,38.96c0,6.11-1.2,11.62-3.39,16.8h29.23c0.91-5.02,1.41-10.51,1.41-16.6
		c0-41.27-31.29-70.06-69.48-70.06h-0.38c-38.58,0-69.1,29.37-69.1,68.91c0,6.55,0.59,12.41,1.71,17.76H605.98z"/>
	<linearGradient id="SVGID_8_" gradientUnits="userSpaceOnUse" x1="615.8551" y1="447.96" x2="680.8143" y2="447.96">
		<stop  offset="0" style="stop-color:#36A6D6;stop-opacity:0"/>
		<stop  offset="1" style="stop-color:#0657A3"/>
	</linearGradient>
	<path class="st9" d="M632.69,459.99c3.94-1.06,8.12-1.62,12.43-1.62h0.38c10.99,0,21.02,3.72,28.5,10.07
		c1.43-0.51,2.22-0.91,2.22-0.91c3.01-14.79-2.6-27.62-11.73-37.46c-6.16-1.69-12.65-2.6-19.37-2.6h-0.38
		c-11.87,0-22.97,2.79-32.66,7.79C618.83,446.72,625.86,454.62,632.69,459.99z"/>
	<path class="st10" d="M645.11,427.47h-0.38c-11.87,0-22.97,2.79-32.66,7.79c33.9,12,51.97,24.07,61.48,32.8
		c3.02,2.48,5.63,5.38,7.75,8.64c1.92,2.76,2.43,4.36,2.43,4.36l0,0c2.31,4.88,3.61,10.36,3.61,16.29c0,6.11-1.2,11.62-3.39,16.8
		h29.23c0.91-5.02,1.41-10.51,1.41-16.6C714.6,456.27,683.31,427.47,645.11,427.47z"/>
</g>
<g>
	
		<linearGradient id="SVGID_9_" gradientUnits="userSpaceOnUse" x1="369.8468" y1="573.7606" x2="456.5108" y2="573.7606" gradientTransform="matrix(0 -1 1 0 71.352 1105.9929)">
		<stop  offset="0" style="stop-color:#8CCCE6"/>
		<stop  offset="1" style="stop-color:#36A6D6"/>
	</linearGradient>
	<path class="st11" d="M684.25,649.48c1.99,4.9,3.09,10.31,3.09,16.8c0,23.03-19.19,38.96-42.23,38.96h-0.38
		c-23.03,0-41.84-16.32-41.84-38.96c0-6.11,1.2-11.62,3.39-16.8h-29.23c-0.91,5.02-1.41,10.51-1.41,16.6
		c0,41.27,31.29,70.06,69.48,70.06h0.38c38.58,0,69.1-29.37,69.1-68.91c0-6.55-0.59-12.41-1.71-17.76H684.25z"/>
	<linearGradient id="SVGID_10_" gradientUnits="userSpaceOnUse" x1="613.193" y1="715.6598" x2="670.322" y2="715.6598">
		<stop  offset="0" style="stop-color:#0657A3"/>
		<stop  offset="1" style="stop-color:#36A6D6;stop-opacity:0"/>
	</linearGradient>
	<path class="st12" d="M657.54,703.63c-3.94,1.06-8.12,1.62-12.43,1.62h-0.38c-10.99,0-21.02-3.72-28.5-10.07
		c-1.43,0.51-2.22,0.91-2.22,0.91c-3.01,14.79,2.6,27.62,11.73,37.46c6.16,1.69,12.65,2.6,19.37,2.6h0.38
		c11.87,0,22.97-2.79,32.66-7.79C671.39,716.9,664.36,709,657.54,703.63z"/>
	<path class="st10" d="M645.11,736.15h0.38c11.87,0,22.97-2.79,32.66-7.79c-33.9-12-51.97-24.07-61.48-32.8
		c-3.02-2.48-5.63-5.38-7.75-8.64c-1.92-2.76-2.43-4.36-2.43-4.36l0,0c-2.31-4.88-3.61-10.36-3.61-16.29c0-6.11,1.2-11.62,3.39-16.8
		h-29.23c-0.91,5.02-1.41,10.51-1.41,16.6C575.63,707.35,606.92,736.15,645.11,736.15z"/>
</g>
<linearGradient id="SVGID_11_" gradientUnits="userSpaceOnUse" x1="621.7428" y1="601.5475" x2="610.9876" y2="588.0139">
	<stop  offset="0" style="stop-color:#CBDF84;stop-opacity:0"/>
	<stop  offset="0.1378" style="stop-color:#BDD576;stop-opacity:0.1378"/>
	<stop  offset="0.4915" style="stop-color:#9EBE58;stop-opacity:0.4915"/>
	<stop  offset="0.7915" style="stop-color:#8BB046;stop-opacity:0.7915"/>
	<stop  offset="1" style="stop-color:#84AB3F"/>
</linearGradient>
<polygon class="st13" points="601.19,600.04 624.05,600.04 624.05,580.08 "/>
<linearGradient id="SVGID_12_" gradientUnits="userSpaceOnUse" x1="670.7872" y1="600.4623" x2="679.879" y2="588.2175">
	<stop  offset="0" style="stop-color:#CBDF84;stop-opacity:0"/>
	<stop  offset="0.1378" style="stop-color:#BDD576;stop-opacity:0.1378"/>
	<stop  offset="0.4915" style="stop-color:#9EBE58;stop-opacity:0.4915"/>
	<stop  offset="0.7915" style="stop-color:#8BB046;stop-opacity:0.7915"/>
	<stop  offset="1" style="stop-color:#84AB3F"/>
</linearGradient>
<polygon class="st14" points="689.07,600.04 666.21,600.04 666.21,582.43 "/>
<linearGradient id="SVGID_13_" gradientUnits="userSpaceOnUse" x1="601.1852" y1="580.9249" x2="689.0669" y2="580.9249">
	<stop  offset="0" style="stop-color:#0657A3"/>
	<stop  offset="0.5" style="stop-color:#0E92CC"/>
	<stop  offset="1" style="stop-color:#0657A3"/>
</linearGradient>
<path class="st15" d="M601.19,576.09c0,0,22.86-14.28,43.94-14.28c21.08,0,43.94,14.28,43.94,14.28v23.95
	c0,0-20.18-17.33-43.94-17.33c-23.76,0-43.94,17.33-43.94,17.33V576.09z"/>
<text transform="matrix(1 0 0 1 335.8342 822.1602)"><tspan x="0" y="0" class="st16 st17 st18">HEALTh</tspan><tspan x="387.81" y="0" class="st19 st17 st18">RIFIC</tspan></text>
</svg>
